<?xml version="1.0" standalone="no"?>
<!DOCTYPE svg PUBLIC "-//W3C//DTD SVG 20010904//EN"
 "http://www.w3.org/TR/2001/REC-SVG-20010904/DTD/svg10.dtd">
<svg version="1.0" xmlns="http://www.w3.org/2000/svg"
 width="640.000000pt" height="110.000000pt" viewBox="0 0 640.000000 110.000000"
 preserveAspectRatio="xMidYMid meet">

<g transform="translate(0.000000,110.000000) scale(0.100000,-0.100000)"
fill="#000000" stroke="none">
<path d="M1820 1003 c-36 -13 -50 -36 -50 -84 0 -90 39 -130 107 -113 41 10
59 33 49 59 -6 16 -9 15 -31 -9 -13 -14 -29 -26 -35 -26 -21 0 -50 21 -50 35
0 14 12 19 72 30 47 7 52 16 34 60 -18 43 -57 62 -96 48z m64 -55 c13 -22 10
-24 -41 -33 -38 -6 -43 -5 -43 12 0 42 61 58 84 21z"/>
<path d="M1661 968 c-6 -7 -28 -13 -48 -13 -20 0 -38 -6 -40 -12 -3 -8 4 -13
15 -13 15 0 21 -9 25 -37 4 -21 9 -52 13 -69 5 -26 2 -32 -15 -37 -27 -7 -36
7 -50 72 -6 30 -16 61 -23 68 -14 18 -79 16 -106 -3 -25 -18 -29 -52 -6 -61
23 -8 40 12 25 30 -9 12 -7 16 13 21 64 16 73 -27 12 -59 -51 -26 -63 -46 -50
-82 7 -22 17 -29 41 -31 18 -2 42 2 55 9 13 7 47 14 76 15 66 3 102 11 102 24
0 6 -9 10 -19 10 -16 0 -21 10 -27 56 -6 49 -4 59 15 77 21 21 21 21 21 1 0
-28 9 -35 31 -23 22 11 25 39 7 57 -16 16 -51 15 -67 0z m-142 -184 c-7 -8
-24 -14 -38 -12 -40 5 -34 39 9 59 35 17 35 17 38 -8 2 -13 -2 -31 -9 -39z"/>
<path d="M3198 953 c-2 -10 -2 -110 0 -222 4 -197 4 -204 -14 -196 -11 4 -35
10 -54 13 -19 2 -40 9 -47 14 -7 6 -13 4 -16 -4 -4 -8 -6 -7 -6 4 -1 26 -46
33 -115 18 -34 -7 -74 -13 -91 -13 -74 0 -195 -30 -195 -48 0 -5 12 -2 26 8
24 16 27 16 38 1 10 -13 25 -16 77 -13 36 3 58 1 51 -4 -11 -7 -11 -9 2 -14
23 -9 43 1 49 24 7 27 32 24 61 -8 18 -19 28 -24 38 -16 7 6 33 11 58 11 25 1
66 4 93 8 l47 6 0 -34 c0 -33 -1 -34 -37 -30 -21 2 -42 8 -48 12 -5 5 -149 9
-320 10 -342 1 -358 2 -401 25 -31 16 -54 19 -54 8 0 -5 9 -57 19 -118 11 -60
22 -126 25 -145 4 -19 11 -59 16 -89 12 -67 12 -82 1 -100 -6 -8 -58 -23 -128
-37 l-118 -22 2123 -1 2122 -1 0 349 0 349 -69 7 c-38 4 -82 4 -98 1 -23 -5
-30 -2 -38 16 -9 20 -19 23 -68 26 -59 3 -87 -8 -87 -34 0 -19 -36 -54 -55
-54 -18 0 -18 -5 -1 83 30 151 30 143 -6 182 -28 29 -42 36 -90 41 -53 6 -59
5 -94 -24 -45 -37 -74 -80 -74 -109 0 -12 -8 -35 -17 -52 -17 -29 -17 -33 -1
-61 16 -29 13 -36 -15 -31 -5 1 -43 -6 -85 -15 -42 -9 -95 -20 -117 -24 -51
-10 -108 -32 -129 -49 -11 -9 -59 -14 -165 -16 -82 -2 -154 -6 -159 -9 -5 -3
-83 -8 -173 -12 -156 -6 -218 -9 -229 -13 -3 -1 1 -5 7 -9 7 -5 83 -7 168 -6
85 2 157 -1 160 -6 8 -13 -194 -23 -374 -18 -91 3 -150 2 -131 -2 l35 -7 -35
-2 c-19 0 -68 -8 -107 -16 -40 -8 -110 -15 -155 -14 -46 0 -103 -4 -129 -11
-63 -16 -566 -6 -611 13 -39 15 -49 16 -93 1 -35 -13 -49 -13 -60 -4 -9 7 -26
9 -45 5 -27 -6 -30 -4 -30 19 0 24 3 25 63 29 l62 3 -62 2 -63 2 0 113 c-1 61
-3 136 -6 165 -9 85 -1 102 46 102 29 0 40 -4 40 -15 0 -9 -7 -18 -15 -21 -8
-4 -15 -11 -15 -17 0 -7 4 -7 12 1 7 7 20 12 30 12 16 0 17 3 7 23 -16 30 -28
37 -66 37 -23 0 -33 6 -38 20 -8 25 -22 26 -27 3z m2611 -149 c-13 -32 -12
-149 2 -175 6 -12 -1 -25 -26 -49 -19 -19 -35 -43 -35 -54 -1 -21 -1 -21 -16
-1 -12 16 -14 35 -8 91 4 47 2 79 -5 93 -8 14 -8 21 -1 21 5 0 10 -4 10 -10 0
-5 4 -10 9 -10 6 0 3 16 -5 35 -18 44 -18 44 5 38 14 -3 21 2 26 19 4 12 17
35 29 49 20 25 21 25 24 4 2 -12 -2 -34 -9 -51z m71 -89 c0 -8 -4 -15 -10 -15
-5 0 -7 7 -4 15 4 8 8 15 10 15 2 0 4 -7 4 -15z m237 -71 c11 -3 24 -15 26
-26 5 -18 4 -19 -12 -4 -10 9 -25 16 -34 16 -9 0 -17 5 -17 10 0 11 6 12 37 4z
m-25 -63 c16 -19 15 -19 -20 -14 -44 7 -46 8 -37 22 10 17 39 13 57 -8z m60
-38 c-6 -3 -10 -8 -7 -13 8 -13 -15 -68 -32 -74 -23 -9 -26 -1 -11 24 11 18
10 23 -7 36 -12 9 -30 12 -43 9 -17 -4 -23 -2 -20 7 5 16 48 24 48 9 0 -14 42
-9 59 7 7 7 16 10 20 6 3 -4 0 -9 -7 -11z m-565 -43 c-1 -12 -7 -18 -14 -16
-9 4 -13 -5 -13 -26 l0 -32 24 33 24 32 12 -51 c12 -48 11 -52 -19 -105 -18
-31 -29 -60 -26 -65 3 -4 6 -33 6 -63 1 -30 5 -61 10 -69 7 -10 9 -11 9 0 0
10 3 10 15 -2 11 -11 13 -21 5 -40 -8 -23 -7 -26 10 -26 23 0 27 -18 5 -26 -8
-4 -15 -12 -15 -19 0 -10 -20 -13 -70 -14 l-70 0 0 33 c0 19 9 64 21 101 13
44 18 80 14 101 -6 37 -21 45 -28 16 -3 -9 -5 10 -6 43 -1 43 -4 56 -11 45 -8
-12 -10 -9 -10 13 0 25 -2 27 -15 13 -8 -8 -15 -29 -15 -47 0 -68 -23 -211
-37 -224 -7 -8 -14 -17 -13 -20 3 -47 -1 -67 -14 -62 -8 3 -17 1 -20 -6 -12
-24 3 52 39 208 38 166 57 215 97 252 45 43 108 56 105 23z m63 -65 c-7 -9
-15 -13 -18 -10 -3 2 1 11 8 20 7 9 15 13 18 10 3 -2 -1 -11 -8 -20z m576
-112 c7 -37 13 -77 13 -88 l0 -20 -15 20 c-15 19 -15 16 -11 -32 3 -29 14 -69
26 -88 25 -43 26 -46 6 -39 -10 4 -15 0 -16 -12 -1 -11 -6 -3 -13 17 -6 20
-18 44 -26 54 -17 20 -14 57 7 98 12 24 12 31 1 45 -10 12 -10 14 0 8 20 -12
15 65 -9 109 l-21 40 22 -22 c15 -14 27 -45 36 -90z m-535 52 c5 4 9 -4 9 -17
-1 -22 -1 -22 -15 -4 -8 11 -14 27 -14 35 1 12 2 12 6 -2 2 -9 9 -15 14 -12z
m-2828 -142 c-7 -2 -19 -2 -25 0 -7 3 -2 5 12 5 14 0 19 -2 13 -5z m-130 -100
c-13 -2 -33 -2 -45 0 -13 2 -3 4 22 4 25 0 35 -2 23 -4z m3444 -45 c-3 -8 -6
-5 -6 6 -1 11 2 17 5 13 3 -3 4 -12 1 -19z m-2817 -22 c0 -20 -16 -36 -36 -36
-17 0 -24 6 -24 20 0 16 7 20 30 20 17 0 30 -2 30 -4z"/>
<path d="M813 913 c-28 -5 -30 -23 -3 -30 11 -3 20 -13 20 -23 0 -10 3 -26 6
-34 5 -14 2 -15 -18 -7 -16 6 -34 5 -55 -4 -38 -16 -50 -61 -33 -123 18 -69
79 -91 124 -46 10 9 16 11 16 4 0 -15 52 -9 57 7 2 6 -4 13 -14 15 -14 2 -21
26 -38 122 -11 66 -25 120 -30 121 -6 1 -20 0 -32 -2z m27 -143 c6 -12 10 -40
8 -63 -3 -38 -6 -42 -33 -45 -37 -5 -55 19 -55 73 0 49 4 55 41 55 18 0 32 -7
39 -20z"/>
<path d="M1323 913 c-27 -5 -30 -18 -7 -31 13 -7 15 -20 9 -76 l-8 -68 -33 59
c-18 32 -34 61 -34 64 0 3 10 11 23 16 20 10 20 12 4 18 -20 8 -87 -2 -87 -13
0 -4 9 -15 20 -25 18 -15 20 -25 14 -70 -4 -28 -8 -53 -9 -55 -2 -2 -17 22
-35 53 -24 42 -29 60 -21 68 18 18 13 27 -16 27 -33 0 -65 -19 -46 -26 7 -3
31 -41 55 -85 23 -43 47 -79 52 -79 24 0 39 20 46 56 l7 39 18 -37 c19 -39 44
-49 63 -25 5 6 13 39 17 72 4 33 13 72 20 87 18 38 9 43 -52 31z"/>
<path d="M952 844 c-24 -17 -29 -46 -9 -62 19 -16 40 2 32 27 -6 20 -4 22 27
19 50 -5 46 -29 -9 -58 -52 -27 -66 -59 -40 -94 17 -24 70 -26 94 -4 12 11 28
14 46 11 29 -6 36 7 12 27 -7 6 -17 33 -21 58 -9 70 -27 92 -72 92 -21 0 -48
-7 -60 -16z m96 -136 c-11 -23 -46 -32 -63 -18 -24 20 -17 38 23 59 l37 19 6
-21 c3 -12 2 -30 -3 -39z"/>
<path d="M372 818 c4 -30 43 -33 43 -3 0 13 -8 21 -23 23 -20 3 -23 0 -20 -20z"/>
<path d="M268 783 c-11 -3 -20 -19 -24 -41 -3 -20 -11 -63 -18 -95 l-11 -58
-45 78 c-44 76 -46 78 -84 78 -23 0 -41 -5 -44 -12 -2 -8 5 -13 16 -13 17 0
22 -13 37 -92 15 -83 15 -92 1 -100 -31 -18 -17 -30 27 -23 51 9 71 23 40 31
-15 4 -22 16 -27 47 -4 23 -9 58 -12 77 -4 29 3 21 43 -50 27 -47 53 -85 58
-85 6 0 16 32 23 70 7 39 15 81 19 95 6 26 5 30 28 -97 5 -26 3 -33 -10 -33
-9 0 -15 -6 -12 -12 4 -12 26 -13 75 -2 26 5 30 24 4 24 -15 0 -21 16 -35 92
-14 81 -14 94 -2 101 36 20 4 34 -47 20z"/>
<path d="M569 777 c-7 -7 -26 -11 -44 -9 -37 4 -59 -16 -27 -25 16 -4 23 -18
31 -67 14 -79 14 -76 -5 -76 -9 0 -14 -6 -11 -12 4 -12 26 -13 75 -2 27 5 29
24 3 24 -16 0 -20 10 -26 60 -8 65 2 90 36 90 23 0 38 -27 46 -86 4 -32 2 -48
-7 -54 -15 -9 -5 -31 13 -25 7 2 24 6 40 9 28 7 38 26 13 26 -10 0 -19 20 -26
58 -16 77 -33 102 -70 102 -16 0 -35 -6 -41 -13z"/>
<path d="M5336 761 c-3 -5 -21 -9 -40 -9 -51 0 -76 -11 -76 -33 0 -17 7 -19
68 -18 49 1 60 3 42 9 -20 6 -14 8 28 9 51 1 77 21 27 21 -16 0 -25 6 -25 15
0 16 -16 20 -24 6z"/>
<path d="M367 743 c-13 -12 -7 -23 12 -23 15 0 21 -12 30 -63 14 -80 14 -77
-5 -77 -9 0 -14 -5 -12 -11 5 -14 5 -14 56 -6 41 7 59 27 24 27 -15 0 -21 14
-31 80 -13 77 -14 80 -41 80 -14 0 -30 -3 -33 -7z"/>
<path d="M4540 660 c-12 -8 -10 -10 8 -10 13 0 20 4 17 10 -7 12 -6 12 -25 0z"/>
<path d="M1210 525 c-107 -17 -415 -69 -683 -115 -398 -68 -492 -82 -508 -72
-18 12 -19 7 -19 -163 l0 -175 526 0 527 0 -6 42 c-4 24 -16 95 -27 158 -21
120 -20 154 5 164 13 5 304 58 669 122 77 13 142 26 144 29 3 3 -28 6 -69 7
l-74 1 55 7 c30 4 51 8 45 10 -5 1 4 6 20 10 23 6 13 8 -40 9 -45 1 -76 -4
-84 -11 -11 -10 -13 -10 -7 0 5 8 -1 12 -19 12 -20 0 -26 -4 -21 -15 4 -12 2
-13 -13 -5 -10 5 -66 11 -122 13 -83 4 -143 -2 -299 -28z m248 8 c-21 -2 -55
-2 -75 0 -21 2 -4 4 37 4 41 0 58 -2 38 -4z"/>
<path d="M1838 533 c6 -2 18 -2 25 0 6 3 1 5 -13 5 -14 0 -19 -2 -12 -5z"/>
<path d="M1903 533 c15 -2 37 -2 50 0 12 2 0 4 -28 4 -27 0 -38 -2 -22 -4z"/>
<path d="M2410 530 c14 -4 19 -8 12 -9 -18 -1 -5 -21 14 -21 8 0 14 8 14 18 0
13 2 14 9 3 6 -9 10 -10 16 -2 5 9 10 9 20 1 8 -7 20 -8 27 -4 18 11 -24 22
-87 22 -39 0 -45 -2 -25 -8z"/>
<path d="M2595 510 c-3 -5 1 -10 9 -10 8 0 18 5 21 10 3 6 -1 10 -9 10 -8 0
-18 -4 -21 -10z"/>
<path d="M2690 509 c0 -5 5 -7 10 -4 6 3 10 8 10 11 0 2 -4 4 -10 4 -5 0 -10
-5 -10 -11z"/>
<path d="M2040 420 c0 -11 7 -20 15 -20 16 0 19 -10 40 -125 12 -69 12 -81 -1
-91 -29 -23 -16 -36 29 -29 23 4 46 11 51 15 10 10 -2 32 -14 25 -11 -7 -23
51 -18 96 2 28 7 35 30 37 25 3 27 0 38 -53 9 -41 9 -60 1 -68 -26 -26 -12
-39 32 -32 23 4 45 9 49 11 11 7 -3 34 -17 34 -7 0 -16 17 -19 38 -19 105 -50
137 -107 108 l-28 -14 -7 44 c-6 42 -8 44 -40 44 -27 0 -34 -4 -34 -20z"/>
<path d="M1935 330 c-12 -4 -27 -15 -34 -24 -20 -24 -16 -100 6 -139 16 -28
25 -32 65 -35 40 -3 49 1 67 24 12 15 20 34 19 43 -5 25 -27 24 -39 -2 -26
-58 -89 -29 -89 41 0 43 14 62 46 62 17 0 20 -5 16 -25 -5 -29 20 -44 43 -25
21 18 19 37 -10 65 -25 25 -54 30 -90 15z"/>
<path d="M1776 295 c-8 -8 -17 -11 -20 -7 -3 5 -19 7 -36 4 -22 -3 -30 -9 -28
-21 2 -9 11 -15 20 -13 12 2 17 -9 23 -45 3 -27 9 -58 12 -70 4 -19 1 -23 -20
-23 -27 0 -31 7 -42 77 -10 61 -26 78 -74 77 -48 -2 -81 -26 -81 -61 0 -28 24
-40 45 -23 11 9 12 17 4 32 -9 18 -7 19 22 16 44 -4 47 -23 7 -44 -51 -25 -68
-45 -68 -75 0 -54 84 -77 121 -33 7 9 16 11 23 5 18 -15 141 11 141 29 0 8 -8
14 -17 14 -12 -1 -19 8 -24 30 -8 46 -1 99 14 104 7 2 12 0 11 -5 -6 -37 33
-47 51 -13 25 46 -45 84 -84 45z m-126 -149 c0 -28 -22 -49 -47 -44 -29 5 -27
35 4 52 38 21 43 20 43 -8z"/>
<path d="M1270 261 c0 -5 -19 -6 -42 -4 -34 4 -49 0 -70 -17 -54 -42 -21 -111
59 -125 57 -9 81 -28 67 -52 -8 -12 -23 -18 -50 -18 -33 0 -40 4 -42 22 -2 15
-10 23 -23 23 -22 0 -24 -18 -7 -55 13 -30 44 -40 95 -32 48 8 73 33 73 73 0
39 -32 68 -87 79 -48 9 -73 22 -73 39 0 16 22 26 56 26 16 0 28 -8 36 -25 6
-14 20 -25 31 -25 17 0 19 5 13 42 -4 22 -9 45 -12 50 -7 11 -24 10 -24 -1z"/>
<path d="M1404 238 c-50 -13 -58 -29 -55 -111 1 -29 9 -46 31 -69 27 -26 36
-30 68 -25 37 6 72 37 72 63 0 21 -33 17 -48 -6 -15 -25 -44 -26 -66 -1 -20
22 -14 26 59 36 l47 8 -5 35 c-10 61 -46 85 -103 70z m60 -54 c8 -21 8 -21
-36 -29 -33 -6 -38 -5 -38 12 0 26 8 33 41 33 16 0 29 -7 33 -16z"/>
</g>
</svg>
